<svg width="20" height="10" viewBox="0 0 20 10" fill="none" xmlns="http://www.w3.org/2000/svg">
<path d="M0.42 9L0.24 8.802L3.132 1.5H3.45L6.432 8.802L6.258 9H0.42ZM1.944 7.992L1.788 7.788H4.89L4.752 7.992L3.24 3.978H3.456L1.944 7.992ZM10.166 9V1.002H11.966C12.066 1.002 12.116 1.052 12.116 1.152V2.13C12.116 2.202 12.086 2.262 12.026 2.31L10.598 3.402V4.512L11.828 5.808C11.852 5.836 11.872 5.866 11.888 5.898C11.908 5.926 11.918 5.96 11.918 6V7.812C11.918 7.888 11.892 7.948 11.84 7.992L10.46 8.928C10.432 8.944 10.402 8.96 10.37 8.976C10.338 8.992 10.304 9 10.268 9H10.166ZM7.06997 9C6.96997 9 6.91997 8.95 6.91997 8.85V7.962C6.91997 7.91 6.92197 7.87 6.92597 7.842C6.93397 7.814 6.95797 7.786 6.99797 7.758L8.37797 6.63V5.52L7.21997 4.47C7.15197 4.414 7.11797 4.354 7.11797 4.29V2.388C7.11797 2.324 7.12197 2.278 7.12997 2.25C7.13797 2.218 7.16797 2.184 7.21997 2.148L8.60597 1.08C8.64197 1.056 8.67797 1.038 8.71397 1.026C8.74997 1.01 8.79397 1.002 8.84597 1.002H8.86997V9H7.06997ZM9.41597 9.882C9.31597 9.882 9.26597 9.832 9.26597 9.732V0.312C9.26597 0.212 9.31597 0.162 9.41597 0.162H9.61997C9.71997 0.162 9.76997 0.212 9.76997 0.312V9.732C9.76997 9.832 9.71997 9.882 9.61997 9.882H9.41597ZM13.2333 9C13.1333 9 13.0833 8.95 13.0833 8.85V1.152C13.0833 1.052 13.1333 1.002 13.2333 1.002H14.9313C15.0313 1.002 15.0813 1.052 15.0813 1.152V4.002H16.5633V1.152C16.5633 1.052 16.6133 1.002 16.7133 1.002H18.4113C18.5113 1.002 18.5613 1.052 18.5613 1.152V8.85C18.5613 8.95 18.5113 9 18.4113 9H16.7133C16.6133 9 16.5633 8.95 16.5633 8.85V5.598H15.0813V8.85C15.0813 8.95 15.0313 9 14.9313 9H13.2333ZM12.6753 3.366C12.5753 3.366 12.5253 3.316 12.5253 3.216V3.018C12.5253 2.918 12.5753 2.868 12.6753 2.868H18.9633C19.0633 2.868 19.1133 2.918 19.1133 3.018V3.216C19.1133 3.316 19.0633 3.366 18.9633 3.366H12.6753Z" fill="black"/>
</svg>
